<mxfile host="app.diagrams.net" modified="2022-10-20T09:20:31.380Z" agent="5.0 (Windows NT 10.0; Win64; x64) AppleWebKit/537.36 (KHTML, like Gecko) Chrome/106.0.0.0 Safari/537.36" etag="4NAyptaa9ZReWf98pXxp" version="20.4.0" type="github">
  <diagram id="sr01JnekD_jXCpEyTvf6" name="Page-1">
    <mxGraphModel dx="1085" dy="568" grid="1" gridSize="10" guides="1" tooltips="1" connect="1" arrows="1" fold="1" page="0" pageScale="1" pageWidth="850" pageHeight="1100" math="0" shadow="0">
      <root>
        <mxCell id="0" />
        <mxCell id="1" parent="0" />
        <mxCell id="XdsOHV8BTMzPMwmC4xkA-11" style="edgeStyle=orthogonalEdgeStyle;rounded=0;orthogonalLoop=1;jettySize=auto;html=1;entryX=0;entryY=0.5;entryDx=0;entryDy=0;" edge="1" parent="1" source="wIP8BCWi-5tpAitjCfOg-1" target="XdsOHV8BTMzPMwmC4xkA-2">
          <mxGeometry relative="1" as="geometry" />
        </mxCell>
        <mxCell id="wIP8BCWi-5tpAitjCfOg-1" value="Product" style="swimlane;childLayout=stackLayout;horizontal=1;startSize=30;horizontalStack=0;rounded=1;fontSize=14;fontStyle=0;strokeWidth=2;resizeParent=0;resizeLast=1;shadow=0;dashed=0;align=center;" parent="1" vertex="1">
          <mxGeometry x="20" y="150" width="160" height="220" as="geometry" />
        </mxCell>
        <mxCell id="wIP8BCWi-5tpAitjCfOg-2" value="id&#xa;name    &#xa;description&#xa;stock&#xa;supplier&#xa;barcode&#xa;currency&#xa;cost&#xa;price&#xa;categoryId&#xa;createdAt&#xa;updatedAt" style="align=left;strokeColor=none;fillColor=none;spacingLeft=4;fontSize=12;verticalAlign=top;resizable=0;rotatable=0;part=1;" parent="wIP8BCWi-5tpAitjCfOg-1" vertex="1">
          <mxGeometry y="30" width="160" height="190" as="geometry" />
        </mxCell>
        <mxCell id="XdsOHV8BTMzPMwmC4xkA-1" value="Category" style="swimlane;childLayout=stackLayout;horizontal=1;startSize=30;horizontalStack=0;rounded=1;fontSize=14;fontStyle=0;strokeWidth=2;resizeParent=0;resizeLast=1;shadow=0;dashed=0;align=center;" vertex="1" parent="1">
          <mxGeometry x="300" y="110" width="160" height="130" as="geometry" />
        </mxCell>
        <mxCell id="XdsOHV8BTMzPMwmC4xkA-2" value="id&#xa;name    &#xa;description&#xa;createdAt&#xa;updatedAt" style="align=left;strokeColor=none;fillColor=none;spacingLeft=4;fontSize=12;verticalAlign=top;resizable=0;rotatable=0;part=1;" vertex="1" parent="XdsOHV8BTMzPMwmC4xkA-1">
          <mxGeometry y="30" width="160" height="100" as="geometry" />
        </mxCell>
        <mxCell id="XdsOHV8BTMzPMwmC4xkA-9" value="Order" style="swimlane;childLayout=stackLayout;horizontal=1;startSize=30;horizontalStack=0;rounded=1;fontSize=14;fontStyle=0;strokeWidth=2;resizeParent=0;resizeLast=1;shadow=0;dashed=0;align=center;" vertex="1" parent="1">
          <mxGeometry x="260" y="320" width="160" height="220" as="geometry" />
        </mxCell>
        <mxCell id="XdsOHV8BTMzPMwmC4xkA-10" value="id&#xa;soldDate&#xa;createdAt&#xa;updatedAt" style="align=left;strokeColor=none;fillColor=none;spacingLeft=4;fontSize=12;verticalAlign=top;resizable=0;rotatable=0;part=1;" vertex="1" parent="XdsOHV8BTMzPMwmC4xkA-9">
          <mxGeometry y="30" width="160" height="190" as="geometry" />
        </mxCell>
        <mxCell id="XdsOHV8BTMzPMwmC4xkA-12" value="OrderDetails" style="swimlane;childLayout=stackLayout;horizontal=1;startSize=30;horizontalStack=0;rounded=1;fontSize=14;fontStyle=0;strokeWidth=2;resizeParent=0;resizeLast=1;shadow=0;dashed=0;align=center;" vertex="1" parent="1">
          <mxGeometry x="590" y="320" width="160" height="220" as="geometry" />
        </mxCell>
        <mxCell id="XdsOHV8BTMzPMwmC4xkA-13" value="id&#xa;orderId&#xa;productName&#xa;productPrice&#xa;productCategory&#xa;notes&#xa;createdAt&#xa;updatedAt" style="align=left;strokeColor=none;fillColor=none;spacingLeft=4;fontSize=12;verticalAlign=top;resizable=0;rotatable=0;part=1;" vertex="1" parent="XdsOHV8BTMzPMwmC4xkA-12">
          <mxGeometry y="30" width="160" height="190" as="geometry" />
        </mxCell>
        <mxCell id="XdsOHV8BTMzPMwmC4xkA-14" style="edgeStyle=orthogonalEdgeStyle;rounded=0;orthogonalLoop=1;jettySize=auto;html=1;entryX=0;entryY=0.5;entryDx=0;entryDy=0;" edge="1" parent="1" source="XdsOHV8BTMzPMwmC4xkA-10" target="XdsOHV8BTMzPMwmC4xkA-12">
          <mxGeometry relative="1" as="geometry" />
        </mxCell>
      </root>
    </mxGraphModel>
  </diagram>
</mxfile>
